<svg width="14" height="18" viewBox="0 0 14 18" fill="none" xmlns="http://www.w3.org/2000/svg">
<path d="M8.07143 5.7306C8.17196 5.7306 8.25661 5.76375 8.3254 5.83004C8.39418 5.89633 8.43915 5.98516 8.46032 6.09654L8.48033 6.2482L8.52138 6.54266C8.61179 7.16787 8.71181 7.70993 8.82143 8.16884C8.95635 8.73365 9.1336 9.1977 9.35317 9.56099C9.57275 9.92427 9.86111 10.2146 10.2183 10.4321C10.5754 10.6495 11.0291 10.8219 11.5794 10.9492C12.0608 11.0605 12.6416 11.1577 13.3216 11.2406L13.619 11.2753C13.7302 11.2859 13.8214 11.3283 13.8929 11.4026C13.9643 11.4768 14 11.567 14 11.6731C14 11.7738 13.9643 11.8613 13.8929 11.9356C13.8214 12.0098 13.7302 12.0549 13.619 12.0708L13.3215 12.1054C12.6412 12.1881 12.0592 12.284 11.5754 12.393C11.0225 12.5176 10.5675 12.69 10.2103 12.9101C9.85317 13.1302 9.56482 13.4219 9.34524 13.7851C9.12566 14.1484 8.94974 14.6112 8.81746 15.1733C8.72652 15.5598 8.64183 16.0077 8.5634 16.517L8.52124 16.8009L8.48031 17.097C8.4736 17.1474 8.46693 17.1982 8.46032 17.2496C8.44444 17.3557 8.40079 17.4432 8.32936 17.5121C8.25794 17.5811 8.17196 17.6155 8.07143 17.6155C7.96561 17.6155 7.87698 17.5811 7.80556 17.5121C7.73413 17.4432 7.69048 17.3557 7.6746 17.2496C7.63823 16.9927 7.60095 16.7488 7.56276 16.5178L7.51651 16.2468C7.44648 15.8497 7.37351 15.4945 7.29762 15.1813C7.1627 14.6244 6.98545 14.1657 6.76587 13.805C6.5463 13.4444 6.25794 13.1567 5.90079 12.9419C5.54365 12.7271 5.08995 12.5548 4.53968 12.4248C4.43651 12.4005 4.32887 12.3765 4.21677 12.353L3.98661 12.3065C3.94726 12.2989 3.90741 12.2912 3.86706 12.2837L3.61905 12.2389C3.57672 12.2315 3.5339 12.2242 3.49058 12.2169L3.2247 12.1738C2.99818 12.1383 2.75926 12.104 2.50794 12.0708C2.39683 12.0549 2.30688 12.0098 2.2381 11.9356C2.16931 11.8613 2.13492 11.7738 2.13492 11.6731C2.13492 11.567 2.16931 11.4768 2.2381 11.4026C2.30688 11.3283 2.39683 11.2859 2.50794 11.2753L2.80549 11.2406L3.09102 11.2042C3.65005 11.1296 4.1369 11.0446 4.55159 10.9492C5.1045 10.8219 5.56085 10.6495 5.92064 10.4321C6.28042 10.2146 6.56878 9.92427 6.78571 9.56099C7.00265 9.1977 7.17725 8.73365 7.30952 8.16884C7.35913 7.95704 7.40724 7.72752 7.45387 7.48029L7.5 7.22716L7.54514 6.96221C7.55258 6.91707 7.55998 6.87144 7.56734 6.82531L7.61099 6.54266C7.61818 6.49457 7.62533 6.44598 7.63244 6.3969L7.6746 6.09654C7.69048 5.98516 7.7328 5.89633 7.80159 5.83004C7.87037 5.76375 7.96032 5.7306 8.07143 5.7306ZM2.9127 3.46339C3.06578 3.46339 3.15434 3.53731 3.17838 3.68515L3.1963 3.81833L3.22381 4.01039L3.25132 4.19084L3.27884 4.3597L3.30635 4.51697L3.33386 4.66264L3.36138 4.79671C3.37055 4.83946 3.37972 4.88029 3.38889 4.91918C3.45767 5.21087 3.56482 5.42831 3.71032 5.5715C3.85582 5.71469 4.0754 5.82208 4.36905 5.89368L4.4925 5.92239C4.53566 5.93198 4.58081 5.9416 4.62795 5.95124L4.7754 5.98023L4.93483 6.00936L5.10626 6.03864L5.28968 6.06806C5.32125 6.07297 5.35332 6.07789 5.38589 6.08282L5.5873 6.11245C5.65609 6.12305 5.71429 6.15222 5.76191 6.19995C5.80952 6.24768 5.83333 6.30867 5.83333 6.38292C5.83333 6.53141 5.75132 6.62157 5.5873 6.65339L5.38589 6.69306L5.19647 6.73146L4.93483 6.78667L4.7754 6.82188L4.55873 6.87232L4.42928 6.90435C4.4087 6.90958 4.38862 6.91476 4.36905 6.91989C4.0754 6.99679 3.85582 7.10683 3.71032 7.25003C3.56482 7.39322 3.45767 7.60403 3.38889 7.88246C3.37513 7.93814 3.36138 7.99823 3.34762 8.06272L3.32011 8.19757C3.31552 8.22102 3.31093 8.24496 3.30635 8.26939L3.27884 8.42185L3.25132 8.58604L3.22381 8.76198L3.1963 8.94965C3.19171 8.9819 3.18713 9.01465 3.18254 9.04788C3.17725 9.12213 3.14947 9.18179 3.09921 9.22687C3.04894 9.27195 2.98677 9.29449 2.9127 9.29449C2.75397 9.29449 2.66402 9.20964 2.64286 9.03993L2.61929 8.84427L2.59517 8.66034C2.5911 8.63067 2.58701 8.60148 2.58289 8.57278L2.55792 8.40647C2.55371 8.37973 2.54948 8.35348 2.54522 8.32771L2.5194 8.17901C2.51505 8.1552 2.51068 8.13188 2.50628 8.10905L2.47961 7.97795C2.47063 7.93621 2.46155 7.89642 2.45238 7.85859C2.3836 7.57486 2.27645 7.3614 2.13095 7.21821C1.98545 7.07501 1.7672 6.96497 1.47619 6.88807L1.354 6.85724C1.31135 6.84694 1.26676 6.83661 1.22025 6.82627L1.07492 6.79515L0.918025 6.7639L0.749559 6.7325L0.569524 6.70096C0.538554 6.6957 0.507102 6.69042 0.475168 6.68514L0.277778 6.65339C0.0925926 6.62688 0 6.53672 0 6.38292C0 6.23937 0.0714404 6.15127 0.214321 6.1186L0.540952 6.05612L0.723104 6.01964L0.893686 5.984C0.921152 5.97813 0.948136 5.97229 0.974638 5.9665L1.12787 5.93213L1.26952 5.89861L1.39961 5.86594C1.42033 5.86057 1.44056 5.85523 1.46032 5.84993C1.75661 5.77038 1.97884 5.66033 2.12698 5.51979C2.27513 5.37925 2.3836 5.17109 2.45238 4.89531C2.47531 4.80339 2.49765 4.69879 2.5194 4.58153L2.54522 4.43473C2.54948 4.40925 2.55371 4.38326 2.55792 4.35677L2.58289 4.19173L2.6073 4.01452L2.63115 3.82516C2.63507 3.79258 2.63898 3.7595 2.64286 3.72591C2.66402 3.5509 2.75397 3.46339 2.9127 3.46339ZM6.54762 0.384766C6.6342 0.384766 6.68798 0.428596 6.70897 0.516255L6.73141 0.626115L6.7804 0.853131L6.8111 0.988039L6.84022 1.1098L6.86777 1.21841C6.87223 1.23541 6.87662 1.25187 6.88095 1.26778C6.92857 1.4428 6.99603 1.57671 7.08333 1.66952C7.17064 1.76233 7.30291 1.83525 7.48016 1.88828C7.5097 1.89712 7.54134 1.90611 7.57507 1.91524L7.68254 1.94308L7.80258 1.97181L7.93518 2.00142C7.95833 2.00643 7.98201 2.01148 8.0062 2.01656L8.2381 2.06329C8.33862 2.0792 8.38889 2.13489 8.38889 2.23035C8.38889 2.31713 8.34735 2.37104 8.26427 2.39208L8.00595 2.44414L7.86662 2.4742L7.73964 2.50337L7.625 2.53165L7.52271 2.55905C7.50669 2.56355 7.49118 2.568 7.47619 2.57242C7.2963 2.62546 7.16138 2.69705 7.07143 2.78721C6.98148 2.87737 6.91402 3.01128 6.86905 3.18894L6.84386 3.29256L6.81736 3.40958L6.78955 3.54002L6.74538 3.76082L6.71429 3.92479C6.69841 4.02025 6.64286 4.06798 6.54762 4.06798C6.45767 4.06798 6.40212 4.02025 6.38095 3.92479L6.34999 3.76082L6.30651 3.54002L6.26656 3.34939L6.2419 3.23907C6.23792 3.2218 6.23401 3.20509 6.23016 3.18894C6.18783 3.01128 6.12169 2.87737 6.03175 2.78721C5.9418 2.69705 5.80688 2.62678 5.62698 2.5764L5.53108 2.55043L5.36491 2.50859L5.17196 2.46326L5.02844 2.43111L4.87302 2.39741C4.7672 2.3815 4.71429 2.32581 4.71429 2.23035C4.71429 2.14357 4.75583 2.08966 4.83891 2.06862L5.02282 2.02948L5.16799 1.997L5.30059 1.96584L5.42063 1.93601C5.43959 1.93115 5.45803 1.92634 5.47594 1.92159L5.57713 1.89375C5.59295 1.88922 5.60825 1.88475 5.62302 1.88033C5.80026 1.82729 5.93254 1.7557 6.01984 1.66554C6.10714 1.57538 6.1746 1.44147 6.22222 1.26381L6.24872 1.16072C6.25322 1.14251 6.25777 1.12378 6.26236 1.10454L6.29044 0.982911L6.31956 0.848923L6.34973 0.702576L6.38095 0.543868C6.40212 0.4378 6.45767 0.384766 6.54762 0.384766Z" fill="#4B0082" style="fill:#4B0082;fill:color(display-p3 0.2941 0.0000 0.5098);fill-opacity:1;"/>
</svg>
